<svg id="SvgjsSvg1001" width="288" height="288" xmlns="http://www.w3.org/2000/svg" version="1.1" xmlns:xlink="http://www.w3.org/1999/xlink" xmlns:svgjs="http://svgjs.com/svgjs"><defs id="SvgjsDefs1002"></defs><g id="SvgjsG1008"><svg xmlns="http://www.w3.org/2000/svg" enable-background="new 0 0 408.75 375.82" viewBox="0 0 408.75 375.82" width="288" height="288"><clipPath id="a"><path d="m283.66 159.21h632.69v1204h-632.69z" transform="rotate(90 600 761.208)" fill="#ffffff" class="color000 svgShape"></path></clipPath><g clip-path="url(#a)" fill="#ffffff" class="color000 svgShape"><path fill="#ffffff" d="m294.48 375.87h145.55v166.27h-145.55z" transform="rotate(-41.712 367.297 459.024)" class="colorfff svgShape"></path><path d="m368.22 569.54 108.73-96.93-17.79-19.95-3.96-4.45-2.91-3.26-25.49 22.68 6.88 7.71 17.68-15.74 10.84 12.16-13.23 11.79-29.03 25.89-8.09 7.21-21.17 18.87-21.62 19.27-96.75-108.53 93.14-83.03 51.76 58.06-17.69 15.74 6.88 7.72 25.49-22.69-5.83-6.53-1.05-1.18-58.72-65.87-108.72 96.93z" fill="#ffffff" class="color000 svgShape"></path><path fill="#ffffff" d="m228.96 384.71h110.94v126.74h-110.94z" transform="rotate(-49.555 284.444 448.095)" class="colorfff svgShape"></path><path d="m296.65 531.44 72.03-84.5-15.51-13.21-3.46-2.95-2.53-2.16-16.89 19.78 6 5.11 11.71-13.73 9.45 8.06-8.76 10.28-19.23 22.56-5.36 6.29-14.03 16.45-14.31 16.8-84.35-71.9 61.7-72.38 45.12 38.46-11.72 13.73 6 5.11 16.89-19.78-5.08-4.33-.92-.78-51.19-43.63-72.02 84.49z" fill="#ffffff" class="color000 svgShape"></path><path fill="#ffffff" d="m182.48 353.67h59.57v68.06h-59.57z" transform="rotate(2.092 212.432 388.023)" class="colorfff svgShape"></path><path d="m181.23 420.62 59.58 2.18.4-10.93.09-2.44.06-1.79-13.95-.52-.16 4.23 9.69.36-.24 6.66-7.25-.26-15.91-.58-4.44-.16-11.6-.43-11.84-.43 2.17-59.48 51.04 1.87-1.16 31.82-9.69-.37-.15 4.23 13.95.52.13-3.58.03-.64 1.32-36.1-59.58-2.17z" fill="#ffffff" class="color000 svgShape"></path><path d="m202.37 372.98h20.98v4.44h-20.98z" transform="rotate(-87.908 212.863 375.21)" fill="#ffffff" class="color000 svgShape"></path><path d="m218.32 377.35 11.28.42.15-4.22-11.27-.43z" fill="#ffffff" class="color000 svgShape"></path><path d="m223.56 360.3h4.23v13.97h-4.23z" transform="rotate(-87.845 225.69 367.281)" fill="#ffffff" class="color000 svgShape"></path><path d="m193.57 384.99 4.43.17.31-8.5 7.04.25.31-.01.16-4.23-11.79-.44z" fill="#ffffff" class="color000 svgShape"></path><path d="m198.83 359.69h4.23v13.39h-4.23z" transform="rotate(-87.908 200.946 366.393)" fill="#ffffff" class="color000 svgShape"></path><path fill="#ffffff" d="m265.78 377.06h157.29v179.68h-157.29z" transform="rotate(-41.355 344.419 466.908)" class="colorfff svgShape"></path><path d="m344.71 586.35 118.16-104-19.08-21.68-4.26-4.84-3.12-3.54-27.7 24.33 7.38 8.39 19.22-16.89 11.63 13.21-14.37 12.65-31.56 27.77-8.79 7.75-23.01 20.25-23.49 20.67-103.81-117.95 101.21-89.09 55.54 63.1-19.22 16.89 7.38 8.39 27.7-24.34-6.25-7.1-1.13-1.29-63-71.57-118.16 104z" fill="#ffffff" class="color000 svgShape"></path></g><path d="m62.44 349.94h283.87v-52.08-11.62-8.52l-66.5-.06v20.14l46.15.04v31.75h-34.54-75.8-21.12-55.28-56.43v-283.36h243.17v151.59l-46.15-.04v20.14l66.5.06v-17.06-3.08-171.96h-283.87z" fill="#ffffff" class="color000 svgShape"></path><path d="M194.5 78.36h21.13v99.9h-21.13zM231.41 178.32l66.49.07v-20.15l-66.49-.06zM231.41 137.58l53.71.07v-20.14l-53.71-.07zM297.9 78.37l-66.49-.07v20.15l66.49.06zM333.53 236.98l-53.72-.06v20.14l53.72.06zM114.94 178.26h21.13v-40.49h33.54l1.47-.12v-20.15l-56.14-.06zM114.94 78.36h63.77v20.14h-63.77zM179.32 251.33c-1.52-2.1-3.3-3.96-5.3-5.54 1.09-1.22 2.06-2.55 2.93-3.98 2.81-4.63 4.23-9.8 4.23-15.37 0-3.41-.6-6.82-1.77-10.14-1.18-3.35-2.89-6.38-5.07-9.03-2.24-2.72-4.99-4.96-8.16-6.65-3.37-1.79-7.14-2.7-11.19-2.7h-40.12v20.02h37.42c1.07 0 2.01.21 2.86.63 1.01.5 1.86 1.16 2.6 2s1.31 1.84 1.74 3.05c.46 1.29.69 2.7.69 4.19 0 1.37-.23 2.63-.69 3.85s-1.11 2.29-1.91 3.19c-.78.88-1.7 1.56-2.81 2.11-.98.48-2.04.72-3.22.72h-36.68v19.53h40.12c1.15 0 2.17.23 3.12.73 1.15.58 2.12 1.33 2.97 2.28.84.94 1.47 2.02 1.94 3.29.49 1.33.72 2.66.72 4.06 0 1.32-.25 2.58-.76 3.86-.53 1.29-1.23 2.39-2.14 3.36-.89.95-1.93 1.69-3.15 2.26-1.09.52-2.26.76-3.56.76h-39.26v20.02h39.26c4.11 0 8.04-.69 11.68-2.06 3.69-1.39 6.97-3.37 9.76-5.9 2.81-2.55 5.08-5.61 6.73-9.08 1.71-3.59 2.58-7.54 2.58-11.74 0-6.67-1.87-12.62-5.56-17.72zM215.62 265.43h12.67l20.56 32.25h24.54l-23.37-36.8c.7-.39 1.39-.81 2.06-1.25v-.01c2.99-2.01 5.57-4.52 7.68-7.45 2.05-2.85 3.67-6.08 4.81-9.6s1.72-7.26 1.72-11.1c0-4.12-.78-8.24-2.33-12.23-1.54-3.97-3.73-7.57-6.51-10.69-2.81-3.16-6.18-5.75-10.04-7.7-4.02-2.04-8.47-3.08-13.23-3.08h-39.7v100.08h21.13v-32.42z" fill="#ffffff" class="color000 svgShape"></path></svg></g></svg>